<?xml version="1.0" encoding="UTF-8" standalone="no"?>
<!-- Created with Inkscape (http://www.inkscape.org/) -->

<svg
   width="3840"
   height="800"
   viewBox="0 0 1016 211.66669"
   version="1.1"
   id="svg1"
   sodipodi:docname="Coachpilot-namelogo-lm.svg"
   inkscape:version="1.4.2 (ebf0e940, 2025-05-08)"
   inkscape:export-filename="../../Exports/lightmode/SVG/Coachpilot-namelogo-lm.svg"
   inkscape:export-xdpi="96"
   inkscape:export-ydpi="96"
   xmlns:inkscape="http://www.inkscape.org/namespaces/inkscape"
   xmlns:sodipodi="http://sodipodi.sourceforge.net/DTD/sodipodi-0.dtd"
   xmlns="http://www.w3.org/2000/svg"
   xmlns:svg="http://www.w3.org/2000/svg">
  <sodipodi:namedview
     id="namedview1"
     pagecolor="#ffffff"
     bordercolor="#000000"
     borderopacity="0.25"
     inkscape:showpageshadow="2"
     inkscape:pageopacity="0.0"
     inkscape:pagecheckerboard="0"
     inkscape:deskcolor="#d1d1d1"
     inkscape:zoom="0.18126483"
     inkscape:cx="1795.7152"
     inkscape:cy="466.16876"
     inkscape:window-width="1680"
     inkscape:window-height="926"
     inkscape:window-x="0"
     inkscape:window-y="25"
     inkscape:window-maximized="0"
     inkscape:current-layer="g1" />
  <defs
     id="defs1" />
  <g
     id="layer1">
    <g
       id="g1"
       transform="matrix(0.9609281,0,0,0.94991203,0.33589485,9.7305269)">
      <path
         style="font-weight:bold;font-size:147.698px;font-family:poppins;-inkscape-font-specification:'poppins Bold';direction:rtl;stroke-width:0.304904"
         d="m 212.70997,99.237997 q 0,-15.212893 6.79411,-27.176431 6.9418,-12.111236 18.75764,-18.757646 11.96354,-6.794108 26.73334,-6.794108 17.28067,0 30.27809,8.86188 12.99742,8.86188 18.16685,24.517868 h -23.77937 q -3.54476,-7.3849 -10.04347,-11.07735 -6.35101,-3.69245 -14.7698,-3.69245 -9.00958,0 -16.09908,4.283242 -6.94181,4.135544 -10.92965,11.81584 -3.84015,7.680296 -3.84015,18.019155 0,10.191163 3.84015,18.019153 3.98784,7.6803 10.92965,11.96354 7.0895,4.13554 16.09908,4.13554 8.41879,0 14.7698,-3.69244 6.49871,-3.84015 10.04347,-11.22505 H 313.44 q -5.16943,15.80368 -18.16685,24.66556 -12.84973,8.71418 -30.27809,8.71418 -14.7698,0 -26.73334,-6.64641 -11.81584,-6.7941 -18.75764,-18.75764 -6.79411,-11.96354 -6.79411,-27.176433 z m 154.78745,53.023583 q -11.81584,0 -21.26851,-5.16943 -9.45267,-5.31713 -14.9175,-14.9175 -5.31713,-9.60037 -5.31713,-22.1547 0,-12.554329 5.46483,-22.154698 5.61252,-9.60037 15.21289,-14.7698 9.60037,-5.317128 21.41621,-5.317128 11.81584,0 21.41621,5.317128 9.60037,5.16943 15.0652,14.7698 5.61252,9.600369 5.61252,22.154698 0,12.55433 -5.76022,22.1547 -5.61252,9.60037 -15.36059,14.9175 -9.60037,5.16943 -21.56391,5.16943 z m 0,-18.01916 q 5.61253,0 10.48656,-2.65856 5.02173,-2.80626 7.97569,-8.27109 2.95396,-5.46482 2.95396,-13.29282 0,-11.668141 -6.20331,-17.871456 -6.05562,-6.351014 -14.9175,-6.351014 -8.86188,0 -14.9175,6.351014 -5.90792,6.203315 -5.90792,17.871456 0,11.66814 5.76022,18.01916 5.90792,6.20331 14.7698,6.20331 z m 52.58056,-24.51786 q 0,-12.406637 4.87403,-22.007006 5.02173,-9.60037 13.44052,-14.7698 8.56648,-5.16943 19.05304,-5.16943 9.15728,0 15.95139,3.69245 6.9418,3.69245 11.07735,9.304974 V 69.107606 h 20.82541 V 150.9323 h -20.82541 v -11.96354 q -3.98785,5.76022 -11.07735,9.60037 -6.94181,3.69245 -16.09909,3.69245 -10.33886,0 -18.90534,-5.31713 -8.41879,-5.31713 -13.44052,-14.9175 -4.87403,-9.74806 -4.87403,-22.30239 z m 64.39633,0.29539 q 0,-7.5326 -2.95396,-12.849725 -2.95396,-5.464825 -7.9757,-8.271087 -5.02173,-2.95396 -10.78195,-2.95396 -5.76022,0 -10.63426,2.806262 -4.87403,2.806262 -7.97569,8.271087 -2.95396,5.317133 -2.95396,12.702033 0,7.3849 2.95396,12.99742 3.10166,5.46483 7.97569,8.41879 5.02174,2.95395 10.63426,2.95395 5.76022,0 10.78195,-2.80626 5.02174,-2.95396 7.9757,-8.27108 2.95396,-5.46483 2.95396,-12.99743 z m 35.74284,0 q 0,-12.702027 5.16943,-22.154698 5.16943,-9.60037 14.32671,-14.7698 9.15728,-5.317128 20.97312,-5.317128 15.21289,0 25.10866,7.680296 10.04346,7.532598 13.44051,21.268511 h -22.30239 q -1.77238,-5.317127 -6.05562,-8.271087 -4.13555,-3.101658 -10.33886,-3.101658 -8.86188,0 -14.03131,6.498712 -5.16943,6.351013 -5.16943,18.166852 0,11.66814 5.16943,18.16686 5.16943,6.35101 14.03131,6.35101 12.55433,0 16.39448,-11.22505 h 22.30239 q -3.39705,13.29282 -13.44051,21.12081 -10.04347,7.828 -25.10866,7.828 -11.81584,0 -20.97312,-5.16943 -9.15728,-5.31713 -14.32671,-14.7698 -5.16943,-9.60037 -5.16943,-22.3024 z m 140.313,-42.093928 q 9.30497,0 16.54218,4.135544 7.2372,3.987846 11.22504,11.963538 4.13555,7.827994 4.13555,18.905346 V 150.9323 H 671.7552 v -45.19559 q 0,-9.748069 -4.87404,-14.917498 -4.87403,-5.317128 -13.29282,-5.317128 -8.56648,0 -13.58821,5.317128 -4.87404,5.169429 -4.87404,14.917498 V 150.9323 H 614.44837 V 41.635778 h 20.67772 v 37.66299 q 3.98785,-5.317128 10.63426,-8.271088 6.64641,-3.101658 14.7698,-3.101658 z m 72.22421,12.997424 q 3.98785,-5.612524 10.92965,-9.304974 7.08951,-3.840148 16.09908,-3.840148 10.48656,0 18.90535,5.16943 8.56648,5.16943 13.44052,14.7698 5.02173,9.452671 5.02173,22.007006 0,12.55433 -5.02173,22.30239 -4.87404,9.60037 -13.44052,14.9175 -8.41879,5.31713 -18.90535,5.31713 -9.00957,0 -15.95138,-3.69245 -6.79411,-3.69245 -11.07735,-9.30498 v 50.66042 H 712.07664 V 69.107606 h 20.67772 z m 43.27551,28.801114 q 0,-7.3849 -3.10165,-12.702033 -2.95396,-5.464825 -7.9757,-8.271087 -4.87403,-2.806262 -10.63425,-2.806262 -5.61253,0 -10.63426,2.95396 -4.87403,2.806262 -7.97569,8.271087 -2.95396,5.464825 -2.95396,12.849725 0,7.3849 2.95396,12.84973 3.10166,5.46482 7.97569,8.41878 5.02173,2.80626 10.63426,2.80626 5.76022,0 10.63425,-2.95395 5.02174,-2.95396 7.9757,-8.41879 3.10165,-5.46483 3.10165,-12.99742 z m 46.67252,-50.365022 q -5.46483,0 -9.15728,-3.397054 -3.54475,-3.544752 -3.54475,-8.714182 0,-5.16943 3.54475,-8.566484 3.69245,-3.544752 9.15728,-3.544752 5.46482,0 9.00958,3.544752 3.69245,3.397054 3.69245,8.566484 0,5.16943 -3.69245,8.714182 -3.54476,3.397054 -9.00958,3.397054 z m 10.19116,9.748068 V 150.9323 H 812.21583 V 69.107606 Z m 41.06,-27.471828 V 150.9323 H 853.27583 V 41.635778 Z m 56.71598,110.625802 q -11.81584,0 -21.26851,-5.16943 -9.45267,-5.31713 -14.9175,-14.9175 -5.31712,-9.60037 -5.31712,-22.1547 0,-12.554329 5.46482,-22.154698 5.61253,-9.60037 15.2129,-14.7698 9.60037,-5.317128 21.41621,-5.317128 11.81584,0 21.41621,5.317128 9.60037,5.16943 15.06519,14.7698 5.61253,9.600369 5.61253,22.154698 0,12.55433 -5.76023,22.1547 -5.61252,9.60037 -15.36059,14.9175 -9.60037,5.16943 -21.56391,5.16943 z m 0,-18.01916 q 5.61253,0 10.48656,-2.65856 5.02173,-2.80626 7.97569,-8.27109 2.95396,-5.46482 2.95396,-13.29282 0,-11.668141 -6.20331,-17.871456 -6.05562,-6.351014 -14.9175,-6.351014 -8.86188,0 -14.9175,6.351014 -5.90792,6.203315 -5.90792,17.871456 0,11.66814 5.76022,18.01916 5.90792,6.20331 14.7698,6.20331 z M 1012.642,86.092876 v 39.583064 q 0,4.13554 1.9201,6.05562 2.0678,1.77237 6.7941,1.77237 h 9.6004 v 17.42837 h -12.9974 q -26.14257,0 -26.14257,-25.40406 V 86.092876 h -9.74807 v -16.98527 h 9.74807 V 48.87298 h 20.82537 v 20.234626 h 18.3146 v 16.98527 z"
         id="text1"
         transform="scale(0.99425144,1.0057818)"
         aria-label="Coachpilot" />
      <path
         style="fill:#645ae6;fill-opacity:1;stroke-width:0.234255"
         d="m 8.5968399,105.7312 v 0 0 H 185.67195 V 17.193675 H 97.134394 Z"
         id="path3"
         sodipodi:nodetypes="ccccccc" />
      <path
         style="fill:#ffa049;fill-opacity:1;stroke-width:0.234255"
         d="m 97.134394,105.7312 v 88.53753 L 185.67195,105.7312 Z"
         id="path4"
         sodipodi:nodetypes="cccc" />
      <g
         id="g8"
         style="fill:#eb555a;fill-opacity:1"
         transform="matrix(0.88537545,0,0,0.8853755,-79.940714,-159.88139)">
        <path
           style="fill:#eb555a;fill-opacity:1;stroke-width:0.264583"
           d="m 175.00002,324.99993 h -50.00001 v 50 h 50.00001 z"
           id="path5"
           sodipodi:nodetypes="ccccc" />
        <path
           style="fill:#eb555a;fill-opacity:1;stroke-width:0.264583"
           d="m 125.00001,324.99993 -15,65 65.00001,-15 z"
           id="path8" />
      </g>
    </g>
  </g>
</svg>
